<svg width="449" height="835" viewBox="0 0 449 835" fill="none" xmlns="http://www.w3.org/2000/svg">
<path d="M448 253.5L384 290.5V362.5L448 326.5V253.5Z" fill="#0F0F59"/>
<path d="M384 362.5L320 325.5V253.5L384 290.5V362.5Z" fill="#0A0B41"/>
<path d="M320 253.5L384 290.5L448 253.5L384 216L320 253.5Z" fill="#56588B"/>
<path d="M449 544.5L385 581.5V653.5L449 617.5V544.5Z" fill="#0F0F59"/>
<path d="M385 653.5L321 616.5V544.5L385 581.5V653.5Z" fill="#0A0B41"/>
<path d="M321 544.5L385 581.5L449 544.5L385 507L321 544.5Z" fill="#56588B"/>
<path d="M385 652.5L321 689.5V761.5L385 725.5V652.5Z" fill="#1E178B"/>
<path d="M321 761.5L257 724.5V652.5L321 689.5V761.5Z" fill="#161165"/>
<path d="M257 652.5L321 689.5L385 652.5L321 615L257 652.5Z" fill="#615CAE"/>
<path d="M129 725.5L65 762.5V834.5L129 798.5V725.5Z" fill="#1E178B"/>
<path d="M65 834.5L1 797.5V725.5L65 762.5V834.5Z" fill="#161165"/>
<path d="M1 725.5L65 762.5L129 725.5L65 688L1 725.5Z" fill="#615CAE"/>
<path d="M448 181.5L384 218.5V290.5L448 254.5V181.5Z" fill="#68FEFF"/>
<path d="M384 290.5L320 253.5V181.5L384 218.5V290.5Z" fill="#4BB9B8"/>
<path d="M320 181.5L384 218.5L448 181.5L384 144L320 181.5Z" fill="#95FFFF"/>
<path d="M448 109.5L384 146.5V218.5L448 182.5V109.5Z" fill="#0F0F59"/>
<path d="M384 218.5L320 181.5V109.5L384 146.5V218.5Z" fill="#0A0B41"/>
<path d="M320 109.5L384 146.5L448 109.5L384 72L320 109.5Z" fill="#56588B"/>
<path d="M448 37.5L384 74.5V146.5L448 110.5V37.5Z" fill="#C006D6"/>
<path d="M384 146.5L320 109.5V37.5L384 74.5V146.5Z" fill="#8D049C"/>
<path d="M320 37.5L384 74.5L448 37.5L384 0L320 37.5Z" fill="#D450E2"/>
<path d="M384 73.5L320 110.5V182.5L384 146.5V73.5Z" fill="#05AEF1"/>
<path d="M320 182.5L256 145.5V73.5L320 110.5V182.5Z" fill="#057FB0"/>
<path d="M256 73.5L320 110.5L384 73.5L320 36L256 73.5Z" fill="#50C6F4"/>
<path d="M384 362.5L320 399.5V471.5L384 435.5V362.5Z" fill="#68FEFF"/>
<path d="M320 471.5L256 434.5V362.5L320 399.5V471.5Z" fill="#4BB9B8"/>
<path d="M256 362.5L320 399.5L384 362.5L320 325L256 362.5Z" fill="#95FFFF"/>
<path d="M320 109.5L256 146.5V218.5L320 182.5V109.5Z" fill="#F6B02A"/>
<path d="M256 218.5L192 181.5V109.5L256 146.5V218.5Z" fill="#B5811E"/>
<path d="M192 109.5L256 146.5L320 109.5L256 72L192 109.5Z" fill="#F9C869"/>
<path d="M385 580.5L321 617.5V689.5L385 653.5V580.5Z" fill="#F6B02A"/>
<path d="M321 689.5L257 652.5V580.5L321 617.5V689.5Z" fill="#B5811E"/>
<path d="M257 580.5L321 617.5L385 580.5L321 543L257 580.5Z" fill="#F9C869"/>
<path d="M128 362.5L64 399.5V471.5L128 435.5V362.5Z" fill="#0F0F59"/>
<path d="M64 471.5L0 434.5V362.5L64 399.5V471.5Z" fill="#0A0B41"/>
<path d="M0 362.5L64 399.5L128 362.5L64 325L0 362.5Z" fill="#56588B"/>
<path d="M321 471.5L257 508.5V580.5L321 544.5V471.5Z" fill="#0F0F59"/>
<path d="M257 580.5L193 543.5V471.5L257 508.5V580.5Z" fill="#0A0B41"/>
<path d="M193 471.5L257 508.5L321 471.5L257 434L193 471.5Z" fill="#56588B"/>
<path d="M321 617.5L257 654.5V726.5L321 690.5V617.5Z" fill="#0F0F59"/>
<path d="M257 726.5L193 689.5V617.5L257 654.5V726.5Z" fill="#0A0B41"/>
<path d="M193 617.5L257 654.5L321 617.5L257 580L193 617.5Z" fill="#56588B"/>
<path d="M257 653.5L193 690.5V762.5L257 726.5V653.5Z" fill="#68FEFF"/>
<path d="M193 762.5L129 725.5V653.5L193 690.5V762.5Z" fill="#4BB9B8"/>
<path d="M129 653.5L193 690.5L257 653.5L193 616L129 653.5Z" fill="#95FFFF"/>
<path d="M256 290.5L192 327.5V399.5L256 363.5V290.5Z" fill="#C006D6"/>
<path d="M192 399.5L128 362.5V290.5L192 327.5V399.5Z" fill="#8D049C"/>
<path d="M128 290.5L192 327.5L256 290.5L192 253L128 290.5Z" fill="#D450E2"/>
<path d="M385 508.5L321 545.5V617.5L385 581.5V508.5Z" fill="#C006D6"/>
<path d="M321 617.5L257 580.5V508.5L321 545.5V617.5Z" fill="#8D049C"/>
<path d="M257 508.5L321 545.5L385 508.5L321 471L257 508.5Z" fill="#D450E2"/>
<path d="M256 218.5L192 255.5V327.5L256 291.5V218.5Z" fill="#68FEFF"/>
<path d="M192 327.5L128 290.5V218.5L192 255.5V327.5Z" fill="#4BB9B8"/>
<path d="M128 218.5L192 255.5L256 218.5L192 181L128 218.5Z" fill="#95FFFF"/>
<path d="M256 146.5L192 183.5V255.5L256 219.5V146.5Z" fill="#0F0F59"/>
<path d="M192 255.5L128 218.5V146.5L192 183.5V255.5Z" fill="#0A0B41"/>
<path d="M128 146.5L192 183.5L256 146.5L192 109L128 146.5Z" fill="#56588B"/>
</svg>
