<svg width="229" height="57" viewBox="0 0 229 57" fill="none" xmlns="http://www.w3.org/2000/svg">
<path d="M78.276 25.344C75.8106 25.344 73.589 24.8423 71.611 23.839C69.6616 22.807 68.128 21.388 67.01 19.582C65.9206 17.776 65.376 15.7263 65.376 13.433C65.376 11.1397 65.9206 9.09 67.01 7.284C68.128 5.478 69.6616 4.07334 71.611 3.07C73.589 2.038 75.8106 1.522 78.276 1.522C80.7126 1.522 82.834 2.038 84.64 3.07C86.4746 4.07334 87.8076 5.521 88.639 7.413L83.436 10.208C82.232 8.08667 80.4976 7.026 78.233 7.026C76.4843 7.026 75.0366 7.59934 73.89 8.746C72.7433 9.89267 72.17 11.455 72.17 13.433C72.17 15.411 72.7433 16.9733 73.89 18.12C75.0366 19.2667 76.4843 19.84 78.233 19.84C80.5263 19.84 82.2606 18.7793 83.436 16.658L88.639 19.496C87.8076 21.3307 86.4746 22.764 84.64 23.796C82.834 24.828 80.7126 25.344 78.276 25.344Z" fill="white"/>
<path d="M103.215 25.344C100.779 25.344 98.5856 24.8423 96.6363 23.839C94.7156 22.807 93.2106 21.388 92.1213 19.582C91.032 17.776 90.4873 15.7263 90.4873 13.433C90.4873 11.1397 91.032 9.09 92.1213 7.284C93.2106 5.478 94.7156 4.07334 96.6363 3.07C98.5856 2.038 100.779 1.522 103.215 1.522C105.652 1.522 107.831 2.038 109.751 3.07C111.672 4.07334 113.177 5.478 114.266 7.284C115.356 9.09 115.9 11.1397 115.9 13.433C115.9 15.7263 115.356 17.776 114.266 19.582C113.177 21.388 111.672 22.807 109.751 23.839C107.831 24.8423 105.652 25.344 103.215 25.344ZM103.215 19.84C104.935 19.84 106.34 19.2667 107.429 18.12C108.547 16.9447 109.106 15.3823 109.106 13.433C109.106 11.4837 108.547 9.93567 107.429 8.789C106.34 7.61367 104.935 7.026 103.215 7.026C101.495 7.026 100.076 7.61367 98.9583 8.789C97.8403 9.93567 97.2813 11.4837 97.2813 13.433C97.2813 15.3823 97.8403 16.9447 98.9583 18.12C100.076 19.2667 101.495 19.84 103.215 19.84Z" fill="white"/>
<path d="M134.445 1.522C137.312 1.522 139.619 2.382 141.368 4.102C143.145 5.822 144.034 8.37334 144.034 11.756V25H137.326V12.788C137.326 10.9533 136.925 9.59167 136.122 8.703C135.319 7.78567 134.158 7.327 132.639 7.327C130.948 7.327 129.6 7.85734 128.597 8.918C127.594 9.95 127.092 11.498 127.092 13.562V25H120.384V1.866H126.791V4.575C127.68 3.60034 128.783 2.855 130.102 2.339C131.421 1.79434 132.868 1.522 134.445 1.522Z" fill="white"/>
<path d="M164.176 1.522C167.042 1.522 169.35 2.382 171.099 4.102C172.876 5.822 173.765 8.37334 173.765 11.756V25H167.057V12.788C167.057 10.9533 166.655 9.59167 165.853 8.703C165.05 7.78567 163.889 7.327 162.37 7.327C160.678 7.327 159.331 7.85734 158.328 8.918C157.324 9.95 156.823 11.498 156.823 13.562V25H150.115V1.866H156.522V4.575C157.41 3.60034 158.514 2.855 159.833 2.339C161.151 1.79434 162.599 1.522 164.176 1.522Z" fill="white"/>
<path d="M202.758 13.519C202.758 13.605 202.715 14.207 202.629 15.325H185.128C185.443 16.7583 186.189 17.8907 187.364 18.722C188.539 19.5533 190.001 19.969 191.75 19.969C192.954 19.969 194.015 19.797 194.932 19.453C195.878 19.0803 196.752 18.507 197.555 17.733L201.124 21.603C198.945 24.097 195.763 25.344 191.578 25.344C188.969 25.344 186.662 24.8423 184.655 23.839C182.648 22.807 181.1 21.388 180.011 19.582C178.922 17.776 178.377 15.7263 178.377 13.433C178.377 11.1683 178.907 9.133 179.968 7.327C181.057 5.49234 182.534 4.07334 184.397 3.07C186.289 2.038 188.396 1.522 190.718 1.522C192.983 1.522 195.032 2.00934 196.867 2.984C198.702 3.95867 200.135 5.36334 201.167 7.198C202.228 9.004 202.758 11.111 202.758 13.519ZM190.761 6.596C189.242 6.596 187.966 7.026 186.934 7.886C185.902 8.746 185.271 9.92134 185.042 11.412H196.437C196.208 9.95 195.577 8.789 194.545 7.929C193.513 7.04034 192.252 6.596 190.761 6.596Z" fill="white"/>
<path d="M221.3 25L216.226 17.905L210.98 25H203.67L212.571 13.347L203.971 1.866H211.496L216.398 8.617L221.429 1.866H228.567L219.967 13.175L228.911 25H221.3Z" fill="white"/>
<path d="M78.276 56.344C75.8106 56.344 73.589 55.8423 71.611 54.839C69.6616 53.807 68.128 52.388 67.01 50.582C65.9206 48.776 65.376 46.7263 65.376 44.433C65.376 42.1397 65.9206 40.09 67.01 38.284C68.128 36.478 69.6616 35.0733 71.611 34.07C73.589 33.038 75.8106 32.522 78.276 32.522C80.7126 32.522 82.834 33.038 84.64 34.07C86.4746 35.0733 87.8076 36.521 88.639 38.413L83.436 41.208C82.232 39.0867 80.4976 38.026 78.233 38.026C76.4843 38.026 75.0366 38.5993 73.89 39.746C72.7433 40.8927 72.17 42.455 72.17 44.433C72.17 46.411 72.7433 47.9733 73.89 49.12C75.0366 50.2667 76.4843 50.84 78.233 50.84C80.5263 50.84 82.2606 49.7793 83.436 47.658L88.639 50.496C87.8076 52.3307 86.4746 53.764 84.64 54.796C82.834 55.828 80.7126 56.344 78.276 56.344Z" fill="white"/>
<path d="M103.215 56.344C100.779 56.344 98.5856 55.8423 96.6363 54.839C94.7156 53.807 93.2106 52.388 92.1213 50.582C91.032 48.776 90.4873 46.7263 90.4873 44.433C90.4873 42.1397 91.032 40.09 92.1213 38.284C93.2106 36.478 94.7156 35.0733 96.6363 34.07C98.5856 33.038 100.779 32.522 103.215 32.522C105.652 32.522 107.831 33.038 109.751 34.07C111.672 35.0733 113.177 36.478 114.266 38.284C115.356 40.09 115.9 42.1397 115.9 44.433C115.9 46.7263 115.356 48.776 114.266 50.582C113.177 52.388 111.672 53.807 109.751 54.839C107.831 55.8423 105.652 56.344 103.215 56.344ZM103.215 50.84C104.935 50.84 106.34 50.2667 107.429 49.12C108.547 47.9447 109.106 46.3823 109.106 44.433C109.106 42.4837 108.547 40.9357 107.429 39.789C106.34 38.6137 104.935 38.026 103.215 38.026C101.495 38.026 100.076 38.6137 98.9583 39.789C97.8403 40.9357 97.2813 42.4837 97.2813 44.433C97.2813 46.3823 97.8403 47.9447 98.9583 49.12C100.076 50.2667 101.495 50.84 103.215 50.84Z" fill="white"/>
<path d="M126.791 35.919C127.594 34.801 128.669 33.9553 130.016 33.382C131.392 32.8087 132.969 32.522 134.746 32.522V38.714C134.001 38.6567 133.499 38.628 133.241 38.628C131.32 38.628 129.815 39.1727 128.726 40.262C127.637 41.3227 127.092 42.928 127.092 45.078V56H120.384V32.866H126.791V35.919Z" fill="white"/>
<path d="M161.186 44.519C161.186 44.605 161.143 45.207 161.057 46.325H143.556C143.871 47.7583 144.616 48.8907 145.792 49.722C146.967 50.5533 148.429 50.969 150.178 50.969C151.382 50.969 152.442 50.797 153.36 50.453C154.306 50.0803 155.18 49.507 155.983 48.733L159.552 52.603C157.373 55.097 154.191 56.344 150.006 56.344C147.397 56.344 145.089 55.8423 143.083 54.839C141.076 53.807 139.528 52.388 138.439 50.582C137.349 48.776 136.805 46.7263 136.805 44.433C136.805 42.1683 137.335 40.133 138.396 38.327C139.485 36.4923 140.961 35.0733 142.825 34.07C144.717 33.038 146.824 32.522 149.146 32.522C151.41 32.522 153.46 33.0093 155.295 33.984C157.129 34.9587 158.563 36.3633 159.595 38.198C160.655 40.004 161.186 42.111 161.186 44.519ZM149.189 37.596C147.669 37.596 146.394 38.026 145.362 38.886C144.33 39.746 143.699 40.9213 143.47 42.412H154.865C154.635 40.95 154.005 39.789 152.973 38.929C151.941 38.0403 150.679 37.596 149.189 37.596Z" fill="white"/>
<path fill-rule="evenodd" clip-rule="evenodd" d="M28 56C43.464 56 56 43.464 56 28C56 12.536 43.464 0 28 0C12.536 0 0 12.536 0 28C0 43.464 12.536 56 28 56ZM14 19.5L28 11L42 19.5V35.5L28 44.5L14 35.5V19.5Z" fill="white"/>
</svg>
