<svg width="192" height="327" viewBox="0 0 192 327" fill="none" xmlns="http://www.w3.org/2000/svg">
<path d="M192 181.5L128 218.5V290.5L192 254.5V181.5Z" fill="#F6B02A"/>
<path d="M128 290.5L64 253.5V181.5L128 218.5V290.5Z" fill="#B5811E"/>
<path d="M64 181.5L128 218.5L192 181.5L128 144L64 181.5Z" fill="#F9C869"/>
<path d="M128 217.5L64 254.5V326.5L128 290.5V217.5Z" fill="#68FEFF"/>
<path d="M64 326.5L0 289.5V217.5L64 254.5V326.5Z" fill="#4BB9B8"/>
<path d="M0 217.5L64 254.5L128 217.5L64 180L0 217.5Z" fill="#95FFFF"/>
<path d="M192 109.5L128 146.5V218.5L192 182.5V109.5Z" fill="#C006D6"/>
<path d="M128 218.5L64 181.5V109.5L128 146.5V218.5Z" fill="#8D049C"/>
<path d="M64 109.5L128 146.5L192 109.5L128 72L64 109.5Z" fill="#D450E2"/>
<path d="M192 37.5L128 74.5V146.5L192 110.5V37.5Z" fill="#0F0F59"/>
<path d="M128 146.5L64 109.5V37.5L128 74.5V146.5Z" fill="#0A0B41"/>
<path d="M64 37.5L128 74.5L192 37.5L128 0L64 37.5Z" fill="#56588B"/>
<path d="M128 145.5L64 182.5V254.5L128 218.5V145.5Z" fill="#1E178B"/>
<path d="M64 254.5L0 217.5V145.5L64 182.5V254.5Z" fill="#161165"/>
<path d="M0 145.5L64 182.5L128 145.5L64 108L0 145.5Z" fill="#615CAE"/>
</svg>
