<svg width="320" height="401" viewBox="0 0 320 401" fill="none" xmlns="http://www.w3.org/2000/svg">
<path d="M320 181.5L256 218.5V290.5L320 254.5V181.5Z" fill="#F6B02A"/>
<path d="M256 290.5L192 253.5V181.5L256 218.5V290.5Z" fill="#B5811E"/>
<path d="M192 181.5L256 218.5L320 181.5L256 144L192 181.5Z" fill="#F9C869"/>
<path d="M256 217.5L192 254.5V326.5L256 290.5V217.5Z" fill="#68FEFF"/>
<path d="M192 326.5L128 289.5V217.5L192 254.5V326.5Z" fill="#4BB9B8"/>
<path d="M128 217.5L192 254.5L256 217.5L192 180L128 217.5Z" fill="#95FFFF"/>
<path d="M128 291.5L64 328.5V400.5L128 364.5V291.5Z" fill="#1E178B"/>
<path d="M64 400.5L0 363.5V291.5L64 328.5V400.5Z" fill="#161165"/>
<path d="M0 291.5L64 328.5L128 291.5L64 254L0 291.5Z" fill="#615CAE"/>
<path d="M320 109.5L256 146.5V218.5L320 182.5V109.5Z" fill="#C006D6"/>
<path d="M256 218.5L192 181.5V109.5L256 146.5V218.5Z" fill="#8D049C"/>
<path d="M192 109.5L256 146.5L320 109.5L256 72L192 109.5Z" fill="#D450E2"/>
<path d="M320 37.5L256 74.5V146.5L320 110.5V37.5Z" fill="#0F0F59"/>
<path d="M256 146.5L192 109.5V37.5L256 74.5V146.5Z" fill="#0A0B41"/>
<path d="M192 37.5L256 74.5L320 37.5L256 0L192 37.5Z" fill="#56588B"/>
<path d="M256 145.5L192 182.5V254.5L256 218.5V145.5Z" fill="#1E178B"/>
<path d="M192 254.5L128 217.5V145.5L192 182.5V254.5Z" fill="#161165"/>
<path d="M128 145.5L192 182.5L256 145.5L192 108L128 145.5Z" fill="#615CAE"/>
</svg>
