<svg width="20" height="20" viewBox="0 0 20 20" fill="none" xmlns="http://www.w3.org/2000/svg">
<path fill-rule="evenodd" clip-rule="evenodd" d="M9.99996 1.62555C5.39579 1.62555 1.66663 5.35472 1.66663 9.95888C1.66663 13.6464 4.05204 16.761 7.36454 17.8651C7.78121 17.9381 7.93746 17.6881 7.93746 17.4693C7.93746 17.2714 7.92704 16.6151 7.92704 15.9172C5.83329 16.3026 5.29163 15.4068 5.12496 14.9381C5.03121 14.6985 4.62496 13.9589 4.27079 13.761C3.97913 13.6047 3.56246 13.2193 4.26038 13.2089C4.91663 13.1985 5.38538 13.813 5.54163 14.063C6.29163 15.3235 7.48954 14.9693 7.96871 14.7505C8.04163 14.2089 8.26038 13.8443 8.49996 13.636C6.64579 13.4276 4.70829 12.7089 4.70829 9.52138C4.70829 8.61513 5.03121 7.86513 5.56246 7.2818C5.47913 7.07347 5.18746 6.2193 5.64579 5.07347C5.64579 5.07347 6.34371 4.85472 7.93746 5.92763C8.60413 5.74013 9.31246 5.64638 10.0208 5.64638C10.7291 5.64638 11.4375 5.74013 12.1041 5.92763C13.6979 4.8443 14.3958 5.07347 14.3958 5.07347C14.8541 6.2193 14.5625 7.07347 14.4791 7.2818C15.0104 7.86513 15.3333 8.60472 15.3333 9.52138C15.3333 12.7193 13.3854 13.4276 11.5312 13.636C11.8333 13.8964 12.0937 14.3964 12.0937 15.1776C12.0937 16.2922 12.0833 17.1881 12.0833 17.4693C12.0833 17.6881 12.2395 17.9485 12.6562 17.8651C14.3105 17.3066 15.748 16.2434 16.7664 14.8251C17.7848 13.4068 18.3328 11.7049 18.3333 9.95888C18.3333 5.35472 14.6041 1.62555 9.99996 1.62555Z" fill="white"/>
</svg>
