<svg width="14" height="14" viewBox="0 0 14 14" fill="none" xmlns="http://www.w3.org/2000/svg">
<path d="M12.9404 6.90425L7.30894 1.27691C7.26839 1.23628 7.22023 1.20405 7.16721 1.18205C7.11419 1.16006 7.05735 1.14874 6.99995 1.14874C6.94255 1.14874 6.88572 1.16006 6.8327 1.18205C6.77968 1.20405 6.73151 1.23628 6.69097 1.27691L1.05952 6.90425C0.895459 7.06831 0.80249 7.29116 0.80249 7.52359C0.80249 8.0062 1.19487 8.39859 1.67749 8.39859H2.27085V12.414C2.27085 12.656 2.46636 12.8515 2.70835 12.8515H6.12495V9.78902H7.6562V12.8515H11.2916C11.5335 12.8515 11.7291 12.656 11.7291 12.414V8.39859H12.3224C12.5548 8.39859 12.7777 8.30698 12.9417 8.14155C13.2822 7.79976 13.2822 7.24605 12.9404 6.90425V6.90425Z" fill="white"/>
</svg>
