<svg width="20" height="20" viewBox="0 0 20 20" fill="none" xmlns="http://www.w3.org/2000/svg">
<path d="M12.5 10C12.5 10.663 12.2366 11.2989 11.7678 11.7678C11.2989 12.2366 10.663 12.5 10 12.5C9.33696 12.5 8.70107 12.2366 8.23223 11.7678C7.76339 11.2989 7.5 10.663 7.5 10C7.5 9.8575 7.515 9.71833 7.54083 9.58333H6.66667V12.9142C6.66667 13.1458 6.85417 13.3333 7.08583 13.3333H12.915C13.026 13.3331 13.1324 13.2889 13.2109 13.2103C13.2893 13.1317 13.3333 13.0252 13.3333 12.9142V9.58333H12.4592C12.485 9.71833 12.5 9.8575 12.5 10V10ZM10 11.6667C10.2189 11.6666 10.4357 11.6234 10.6379 11.5396C10.8402 11.4558 11.0239 11.3329 11.1787 11.1781C11.3334 11.0233 11.4562 10.8394 11.5399 10.6372C11.6237 10.4349 11.6667 10.2181 11.6667 9.99917C11.6666 9.78024 11.6234 9.56347 11.5396 9.36123C11.4558 9.15899 11.3329 8.97525 11.1781 8.82048C11.0233 8.66572 10.8394 8.54297 10.6372 8.45924C10.4349 8.37551 10.2181 8.33245 9.99917 8.3325C9.55703 8.33261 9.13304 8.50836 8.82048 8.82107C8.50792 9.13379 8.33239 9.55786 8.3325 10C8.33261 10.4421 8.50836 10.8661 8.82107 11.1787C9.13379 11.4912 9.55786 11.6668 10 11.6667V11.6667ZM12 8.25H12.9992C13.0655 8.25 13.1292 8.22369 13.1762 8.17683C13.2233 8.12997 13.2498 8.06638 13.25 8V7.00083C13.25 6.93431 13.2236 6.87051 13.1765 6.82347C13.1295 6.77643 13.0657 6.75 12.9992 6.75H12C11.9335 6.75 11.8697 6.77643 11.8226 6.82347C11.7756 6.87051 11.7492 6.93431 11.7492 7.00083V8C11.75 8.1375 11.8625 8.25 12 8.25V8.25ZM10 2C7.87827 2 5.84344 2.84285 4.34315 4.34315C2.84285 5.84344 2 7.87827 2 10C2 12.1217 2.84285 14.1566 4.34315 15.6569C5.84344 17.1571 7.87827 18 10 18C11.0506 18 12.0909 17.7931 13.0615 17.391C14.0321 16.989 14.914 16.3997 15.6569 15.6569C16.3997 14.914 16.989 14.0321 17.391 13.0615C17.7931 12.0909 18 11.0506 18 10C18 8.94943 17.7931 7.90914 17.391 6.93853C16.989 5.96793 16.3997 5.08601 15.6569 4.34315C14.914 3.60028 14.0321 3.011 13.0615 2.60896C12.0909 2.20693 11.0506 2 10 2V2ZM14.1667 13.2408C14.1667 13.75 13.75 14.1667 13.2408 14.1667H6.75917C6.25 14.1667 5.83333 13.75 5.83333 13.2408V6.75917C5.83333 6.25 6.25 5.83333 6.75917 5.83333H13.2408C13.75 5.83333 14.1667 6.25 14.1667 6.75917V13.2408V13.2408Z" fill="white"/>
</svg>
