<svg width="320" height="581" viewBox="0 0 320 581" fill="none" xmlns="http://www.w3.org/2000/svg">
<path d="M320 253.5L256 290.5V362.5L320 326.5V253.5Z" fill="#0F0F59"/>
<path d="M256 362.5L192 325.5V253.5L256 290.5V362.5Z" fill="#0A0B41"/>
<path d="M192 253.5L256 290.5L320 253.5L256 216L192 253.5Z" fill="#56588B"/>
<path d="M320 181.5L256 218.5V290.5L320 254.5V181.5Z" fill="#68FEFF"/>
<path d="M256 290.5L192 253.5V181.5L256 218.5V290.5Z" fill="#4BB9B8"/>
<path d="M192 181.5L256 218.5L320 181.5L256 144L192 181.5Z" fill="#95FFFF"/>
<path d="M320 109.5L256 146.5V218.5L320 182.5V109.5Z" fill="#0F0F59"/>
<path d="M256 218.5L192 181.5V109.5L256 146.5V218.5Z" fill="#0A0B41"/>
<path d="M192 109.5L256 146.5L320 109.5L256 72L192 109.5Z" fill="#56588B"/>
<path d="M320 37.5L256 74.5V146.5L320 110.5V37.5Z" fill="#C006D6"/>
<path d="M256 146.5L192 109.5V37.5L256 74.5V146.5Z" fill="#8D049C"/>
<path d="M192 37.5L256 74.5L320 37.5L256 0L192 37.5Z" fill="#D450E2"/>
<path d="M256 73.5L192 110.5V182.5L256 146.5V73.5Z" fill="#05AEF1"/>
<path d="M192 182.5L128 145.5V73.5L192 110.5V182.5Z" fill="#057FB0"/>
<path d="M128 73.5L192 110.5L256 73.5L192 36L128 73.5Z" fill="#50C6F4"/>
<path d="M256 362.5L192 399.5V471.5L256 435.5V362.5Z" fill="#68FEFF"/>
<path d="M192 471.5L128 434.5V362.5L192 399.5V471.5Z" fill="#4BB9B8"/>
<path d="M128 362.5L192 399.5L256 362.5L192 325L128 362.5Z" fill="#95FFFF"/>
<path d="M192 109.5L128 146.5V218.5L192 182.5V109.5Z" fill="#F6B02A"/>
<path d="M128 218.5L64 181.5V109.5L128 146.5V218.5Z" fill="#B5811E"/>
<path d="M64 109.5L128 146.5L192 109.5L128 72L64 109.5Z" fill="#F9C869"/>
<path d="M193 471.5L129 508.5V580.5L193 544.5V471.5Z" fill="#0F0F59"/>
<path d="M129 580.5L65 543.5V471.5L129 508.5V580.5Z" fill="#0A0B41"/>
<path d="M65 471.5L129 508.5L193 471.5L129 434L65 471.5Z" fill="#56588B"/>
<path d="M128 290.5L64 327.5V399.5L128 363.5V290.5Z" fill="#C006D6"/>
<path d="M64 399.5L0 362.5V290.5L64 327.5V399.5Z" fill="#8D049C"/>
<path d="M0 290.5L64 327.5L128 290.5L64 253L0 290.5Z" fill="#D450E2"/>
<path d="M128 218.5L64 255.5V327.5L128 291.5V218.5Z" fill="#68FEFF"/>
<path d="M64 327.5L0 290.5V218.5L64 255.5V327.5Z" fill="#4BB9B8"/>
<path d="M0 218.5L64 255.5L128 218.5L64 181L0 218.5Z" fill="#95FFFF"/>
<path d="M128 146.5L64 183.5V255.5L128 219.5V146.5Z" fill="#0F0F59"/>
<path d="M64 255.5L0 218.5V146.5L64 183.5V255.5Z" fill="#0A0B41"/>
<path d="M0 146.5L64 183.5L128 146.5L64 109L0 146.5Z" fill="#56588B"/>
</svg>
