<svg width="20" height="20" viewBox="0 0 20 20" fill="none" xmlns="http://www.w3.org/2000/svg">
<path d="M10 2C5.58167 2 2 5.58167 2 10C2 14.4183 5.58167 18 10 18C14.4183 18 18 14.4183 18 10C18 5.58167 14.4183 2 10 2ZM8.04167 13.3158H6.42167V8.1025H8.04167V13.3158ZM7.22167 7.4625C6.71 7.4625 6.37917 7.1 6.37917 6.65167C6.37917 6.19417 6.72 5.8425 7.2425 5.8425C7.765 5.8425 8.085 6.19417 8.095 6.65167C8.095 7.1 7.765 7.4625 7.22167 7.4625ZM13.9583 13.3158H12.3383V10.4267C12.3383 9.75417 12.1033 9.2975 11.5175 9.2975C11.07 9.2975 10.8042 9.60667 10.6867 9.90417C10.6433 10.01 10.6325 10.16 10.6325 10.3092V13.315H9.01167V9.765C9.01167 9.11417 8.99083 8.57 8.96917 8.10167H10.3767L10.4508 8.82583H10.4833C10.6967 8.48583 11.2192 7.98417 12.0933 7.98417C13.1592 7.98417 13.9583 8.69833 13.9583 10.2333V13.3158V13.3158Z" fill="white"/>
</svg>
